<svg width="43" height="43" viewBox="0 0 36 36" fill="none" xmlns="http://www.w3.org/2000/svg">
<path d="M17.875 34.75C27.1948 34.75 34.75 27.1948 34.75 17.875C34.75 8.55519 27.1948 1 17.875 1C8.55519 1 1 8.55519 1 17.875C1 27.1948 8.55519 34.75 17.875 34.75Z" fill="#562927"/>
<path d="M26.0286 15.8571H12.6571C12.6143 16.2429 12.6143 16.6286 12.6143 17.0143C12.6143 17.1429 12.6143 17.3143 12.6143 17.4429C12.1429 17.3143 11.5429 17.2714 10.9857 17.5714C10.4286 17.8714 10.0857 18.4286 10 19.2857V19.3286C10 19.3714 10 20.8714 11.0714 21.9429C11.8 22.6714 12.8286 23.0143 14.1143 23.0143C14.2 23.0143 14.2857 23.0143 14.3286 23.0143C14.9286 23.8714 15.6571 24.5571 16.4714 25.0714V25.8857H22.1714V25.0286C24.4857 23.6143 26.0714 20.5286 26.0714 16.9714C26.1143 16.6286 26.0714 16.2 26.0286 15.8571ZM11.8 21.2571C11.0286 20.5286 10.9857 19.5 10.9857 19.3286C11.0286 18.8571 11.2 18.5143 11.4571 18.3857C11.8 18.1714 12.3571 18.3 12.7 18.4286C12.8714 19.7571 13.2571 20.9571 13.8143 22.0286C12.9571 21.9857 12.2714 21.7286 11.8 21.2571Z" fill="#F9F9F9"/>
<path d="M13.5573 15.8571C13.5144 16.2 13.5144 16.5429 13.5144 16.8857C13.5144 21.2143 16.1287 24.7714 19.3858 24.7714C22.643 24.7714 25.2573 21.2571 25.2573 16.8857C25.2573 16.5429 25.2573 16.2 25.2144 15.8571H13.5573Z" fill="#DBD9D8"/>
<path d="M12.3145 26.4429C12.3145 26.1429 12.5716 25.8857 12.8716 25.8857H25.8573C26.1573 25.8857 26.4144 26.1429 26.4144 26.4429C26.4144 26.7429 26.1573 27 25.8573 27H12.8716C12.5716 27 12.3145 26.7429 12.3145 26.4429Z" fill="#F9F9F9"/>
<path d="M12.8716 27H25.8573C26.1573 27 26.4144 26.7429 26.4144 26.4429H12.3145C12.3145 26.7429 12.5716 27 12.8716 27Z" fill="#C6C5C5"/>
<path d="M13.5574 17.9143C13.9431 21.7714 16.3859 24.7286 19.3431 24.7286C22.3002 24.7286 24.7859 21.7714 25.1288 17.9143H13.5574Z" fill="#DF9E3D"/>
<path opacity="0.25" d="M26.0715 17.0143C26.0715 16.6286 26.0287 16.2429 26.0287 15.8571H16.5144L22.1715 25.0286C24.4858 23.6143 26.0715 20.5714 26.0715 17.0143Z" fill="#E8E7E7"/>
<path d="M16.5144 25.0286H22.1715L16.5144 25.8857V25.0286Z" fill="#D8D8D7"/>
<path d="M15.5859 14.3333C15.8664 14.0404 16.024 13.6432 16.024 13.229C16.024 12.8149 15.8664 12.4176 15.5859 12.1247C15.3053 11.8317 15.1477 11.4345 15.1477 11.0204C15.1477 10.6062 15.3053 10.209 15.5859 9.91605M21.5667 14.3333C21.8472 14.0404 22.0048 13.6432 22.0048 13.229C22.0048 12.8149 21.8472 12.4176 21.5667 12.1247C21.2861 11.8317 21.1285 11.4345 21.1285 11.0204C21.1285 10.6062 21.2861 10.209 21.5667 9.91605M18.5752 13.4184C18.8558 13.1254 19.0134 12.7282 19.0134 12.3141C19.0134 11.8999 18.8558 11.5027 18.5752 11.2097C18.4361 11.0647 18.3258 10.8924 18.2506 10.7028C18.1753 10.5133 18.1365 10.3101 18.1365 10.1049C18.1365 9.89967 18.1753 9.69648 18.2506 9.5069C18.3258 9.31733 18.4361 9.14508 18.5752 9" stroke="#DF9E3D" stroke-linecap="round" stroke-linejoin="round"/>
</svg>
