<svg width="25" height="37" viewBox="0 0 32 37" fill="none" xmlns="http://www.w3.org/2000/svg">
<path fill-rule="evenodd" clip-rule="evenodd" d="M31 15.3182C31 26.4545 16 36 16 36C16 36 1 26.4545 1 15.3182C1 11.5208 2.58035 7.87888 5.3934 5.1937C8.20644 2.50852 12.0218 1 16 1C19.9782 1 23.7936 2.50852 26.6066 5.1937C29.4196 7.87888 31 11.5208 31 15.3182Z" stroke="#E7C5C4" stroke-width="2" stroke-linecap="round" stroke-linejoin="round"/>
<path d="M16 20.0909C18.7614 20.0909 21 17.9541 21 15.3182C21 12.6823 18.7614 10.5455 16 10.5455C13.2386 10.5455 11 12.6823 11 15.3182C11 17.9541 13.2386 20.0909 16 20.0909Z" stroke="#E7C5C4" stroke-width="2" stroke-linecap="round" stroke-linejoin="round"/>
</svg>
