<svg width="461" height="163" viewBox="0 0 461 163" fill="none" xmlns="http://www.w3.org/2000/svg">
<path d="M49.92 124.39C46.7133 124.39 43.42 124.043 40.04 123.35C36.7467 122.657 33.4533 121.617 30.16 120.23C24.7867 117.89 20.4533 114.813 17.16 111C13.8667 107.273 11.4833 103.027 10.01 98.26C8.53667 93.4933 7.8 88.51 7.8 83.31C7.8 77.85 8.45 72.39 9.75 66.93C11.1367 61.47 13.0433 56.27 15.47 51.33C17.8967 46.3033 20.6267 41.84 23.66 37.94C23.0533 35.6867 22.5333 33.0867 22.1 30.14C21.7533 27.1933 21.58 24.2033 21.58 21.17C21.58 16.5767 22.1 12.2 23.14 8.03999C23.4867 6.82666 24.0933 6.21999 24.96 6.21999C25.5667 6.21999 25.87 6.65333 25.87 7.51999C25.87 8.04 25.8267 8.43 25.74 8.68999C25.5667 9.99 25.3933 11.3333 25.22 12.72C25.1333 14.1067 25.09 15.5367 25.09 17.01C25.09 19.9567 25.2633 22.86 25.61 25.72C25.9567 28.58 26.3467 31.2233 26.78 33.65C33.1067 25.4167 40.3433 19.3067 48.49 15.32C56.7233 11.2467 65.3467 9.20999 74.36 9.20999C76.7 9.20999 78.9533 9.33999 81.12 9.6C88.0533 10.38 93.73 12.1133 98.15 14.8C102.57 17.4 105.82 20.6067 107.9 24.42C110.067 28.2333 111.15 32.2633 111.15 36.51C111.15 40.67 110.197 44.7867 108.29 48.86C106.383 52.9333 103.61 56.66 99.97 60.04C96.33 63.3333 91.8667 66.02 86.58 68.1C81.38 70.0933 75.4867 71.09 68.9 71.09C67.4267 71.09 65.9533 71.0467 64.48 70.96C63.0067 70.8733 61.4033 70.7 59.67 70.44C52.8233 69.4 46.5833 67.19 40.95 63.81C35.3167 60.43 30.7667 55.23 27.3 48.21C26.6067 49.0767 25.6533 50.8533 24.44 53.54C23.2267 56.14 22.0133 59.3033 20.8 63.03C19.5867 66.7567 18.5467 70.83 17.68 75.25C16.8133 79.5833 16.38 83.96 16.38 88.38C16.38 92.6267 16.9433 96.7433 18.07 100.73C19.1967 104.63 21.1467 108.053 23.92 111C26.6933 114.033 30.4633 116.287 35.23 117.76C37.57 118.453 39.9967 118.973 42.51 119.32C45.0233 119.667 47.58 119.84 50.18 119.84C55.2067 119.84 60.19 119.19 65.13 117.89C70.07 116.59 74.6633 114.683 78.91 112.17C84.5433 108.877 88.8767 105.063 91.91 100.73C94.9433 96.31 97.76 91.37 100.36 85.91C100.707 85.0433 101.183 84.61 101.79 84.61C102.223 84.61 102.44 84.9133 102.44 85.52C102.44 85.9533 102.267 86.4733 101.92 87.08C100.1 90.8933 98.28 94.4033 96.46 97.61C94.64 100.73 92.5167 103.633 90.09 106.32C87.6633 109.007 84.5867 111.65 80.86 114.25C76.6133 117.197 71.8467 119.623 66.56 121.53C61.2733 123.437 55.7267 124.39 49.92 124.39ZM68.12 67.71C74.1 67.71 79.3867 66.8433 83.98 65.11C88.5733 63.29 92.43 60.95 95.55 58.09C98.7567 55.1433 101.14 51.8933 102.7 48.34C104.347 44.7867 105.17 41.19 105.17 37.55C105.17 33.9967 104.347 30.6167 102.7 27.41C101.053 24.2033 98.54 21.4733 95.16 19.22C91.8667 16.88 87.62 15.3633 82.42 14.67C80.5133 14.41 78.6067 14.28 76.7 14.28C70.8067 14.28 65 15.5367 59.28 18.05C53.6467 20.4767 48.3167 23.9433 43.29 28.45C38.2633 32.87 33.8 38.07 29.9 44.05C32.9333 51.59 37.18 57.1367 42.64 60.69C48.1867 64.2433 54.5133 66.4533 61.62 67.32C63.8733 67.58 66.04 67.71 68.12 67.71ZM106.323 111C103.029 111 100.603 109.917 99.0427 107.75C97.4827 105.497 96.7027 102.767 96.7027 99.56C96.7027 95.66 97.6127 91.5867 99.4327 87.34C101.166 83.3533 103.376 79.7133 106.063 76.42C108.749 73.1267 111.653 70.4833 114.773 68.49C117.893 66.41 120.926 65.37 123.873 65.37C127.166 65.37 129.593 66.4533 131.153 68.62C132.713 70.7867 133.493 73.5167 133.493 76.81C133.493 80.7967 132.583 84.87 130.763 89.03C129.723 91.37 128.249 93.97 126.343 96.83C124.436 99.6033 122.269 102.16 119.843 104.5C120.363 105.453 121.099 106.277 122.053 106.97C123.006 107.577 124.306 107.88 125.953 107.88C128.033 107.88 129.983 107.013 131.803 105.28C133.709 103.547 135.443 101.467 137.003 99.04C138.563 96.5267 139.949 94.0133 141.163 91.5C142.376 88.9867 143.373 86.95 144.153 85.39C144.413 84.87 144.846 84.61 145.453 84.61C145.799 84.61 146.059 84.7833 146.233 85.13C146.406 85.39 146.363 85.8233 146.103 86.43C145.583 87.73 144.716 89.68 143.503 92.28C142.289 94.7933 140.816 97.4367 139.083 100.21C137.349 102.897 135.356 105.193 133.103 107.1C130.849 109.007 128.336 109.96 125.563 109.96C123.656 109.96 122.009 109.657 120.623 109.05C119.236 108.357 118.109 107.533 117.243 106.58C115.423 107.967 113.603 109.05 111.783 109.83C109.963 110.61 108.143 111 106.323 111ZM108.273 108.14C110.613 108.14 113.126 107.013 115.813 104.76C115.119 103.72 114.599 102.637 114.253 101.51C113.906 100.383 113.733 99.3433 113.733 98.39C113.733 96.83 114.079 95.4867 114.773 94.36C115.553 93.2333 116.723 92.67 118.283 92.67C119.409 92.67 120.319 93.1033 121.013 93.97C121.793 94.75 122.183 95.66 122.183 96.7C122.183 96.96 122.139 97.22 122.053 97.48C122.053 97.6533 122.009 97.87 121.923 98.13C123.396 96.1367 124.783 93.7967 126.083 91.11C128.943 84.9567 130.373 79.8867 130.373 75.9C130.373 73.9067 129.983 72.3467 129.203 71.22C128.423 70.0933 127.253 69.53 125.693 69.53C123.873 69.53 121.879 70.31 119.713 71.87C117.633 73.43 115.596 75.51 113.603 78.11C111.696 80.71 110.006 83.6133 108.533 86.82C107.146 89.7667 106.019 92.6267 105.153 95.4C104.373 98.0867 103.983 100.427 103.983 102.42C103.983 104.153 104.329 105.54 105.023 106.58C105.716 107.62 106.799 108.14 108.273 108.14ZM128.158 156.63C126.251 156.63 124.604 156.153 123.218 155.2C121.744 154.247 121.008 152.383 121.008 149.61C121.008 145.277 122.308 139.383 124.908 131.93C127.508 124.477 130.671 116.287 134.398 107.36C133.358 105.627 132.838 103.807 132.838 101.9C132.838 98.8667 133.704 96.7867 135.438 95.66C136.911 94.4467 138.471 93.97 140.118 94.23C143.238 87.21 146.401 80.32 149.608 73.56C152.814 66.7133 155.891 60.2567 158.838 54.19C161.871 48.1233 164.601 42.7933 167.028 38.2C168.501 35.34 170.018 33.13 171.578 31.57C173.224 30.01 175.348 29.23 177.948 29.23C178.728 29.23 179.638 29.4033 180.678 29.75C181.804 30.01 182.801 30.0967 183.668 30.01C181.674 31.9167 179.161 35.1233 176.128 39.63C173.181 44.05 169.974 49.3367 166.508 55.49C163.041 61.6433 159.488 68.3167 155.848 75.51C152.294 82.6167 148.871 89.8533 145.578 97.22C146.358 98.26 147.138 99.6467 147.918 101.38C148.784 103.113 149.391 104.977 149.738 106.97C149.738 107.23 149.781 107.533 149.868 107.88C149.954 108.14 150.041 108.4 150.128 108.66C152.121 108.747 154.028 108.053 155.848 106.58C157.754 105.107 159.531 103.157 161.178 100.73C162.911 98.3033 164.471 95.7467 165.858 93.06C167.331 90.3733 168.588 87.86 169.628 85.52C169.801 85.1733 170.018 84.9567 170.278 84.87C170.624 84.6967 170.884 84.61 171.058 84.61C171.404 84.61 171.664 84.7833 171.838 85.13C172.011 85.39 171.968 85.8233 171.708 86.43C170.494 89.1167 169.151 91.9333 167.678 94.88C166.204 97.74 164.558 100.427 162.738 102.94C160.918 105.367 158.968 107.36 156.888 108.92C154.808 110.393 152.598 111.13 150.258 111.13C150.344 111.737 150.388 112.343 150.388 112.95C150.388 113.643 150.388 114.337 150.388 115.03C150.388 119.537 149.824 124.217 148.698 129.07C147.658 133.923 146.141 138.43 144.148 142.59C142.154 146.75 139.814 150.13 137.128 152.73C134.441 155.33 131.451 156.63 128.158 156.63ZM146.618 109.18H147.268C147.181 106.927 146.791 104.977 146.098 103.33C145.578 102.117 144.928 101.077 144.148 100.21C143.628 101.423 143.151 102.55 142.718 103.59C142.371 104.543 141.938 105.627 141.418 106.84C142.198 108.4 143.931 109.18 146.618 109.18ZM130.108 153.12C130.974 153.12 132.014 152.6 133.228 151.56C134.441 150.607 135.611 149.35 136.738 147.79C138.904 144.93 140.811 141.42 142.458 137.26C144.104 133.1 145.404 128.767 146.358 124.26C147.311 119.753 147.744 115.55 147.658 111.65C147.484 111.65 147.268 111.65 147.008 111.65C146.834 111.737 146.661 111.78 146.488 111.78C145.361 111.78 144.191 111.563 142.978 111.13C141.764 110.697 140.768 110.177 139.988 109.57C137.734 115.377 135.654 121.097 133.748 126.73C131.754 132.45 130.238 137.477 129.198 141.81C128.851 143.457 128.591 144.887 128.418 146.1C128.244 147.313 128.158 148.353 128.158 149.22C128.158 151.82 128.808 153.12 130.108 153.12ZM153.675 156.63C151.769 156.63 150.122 156.153 148.735 155.2C147.262 154.247 146.525 152.383 146.525 149.61C146.525 145.277 147.825 139.383 150.425 131.93C153.025 124.477 156.189 116.287 159.915 107.36C158.875 105.627 158.355 103.807 158.355 101.9C158.355 98.8667 159.222 96.7867 160.955 95.66C162.429 94.4467 163.989 93.97 165.635 94.23C168.755 87.21 171.919 80.32 175.125 73.56C178.332 66.7133 181.409 60.2567 184.355 54.19C187.389 48.1233 190.119 42.7933 192.545 38.2C194.019 35.34 195.535 33.13 197.095 31.57C198.742 30.01 200.865 29.23 203.465 29.23C204.245 29.23 205.155 29.4033 206.195 29.75C207.322 30.01 208.319 30.0967 209.185 30.01C207.192 31.9167 204.679 35.1233 201.645 39.63C198.699 44.05 195.492 49.3367 192.025 55.49C188.559 61.6433 185.005 68.3167 181.365 75.51C177.812 82.6167 174.389 89.8533 171.095 97.22C171.875 98.26 172.655 99.6467 173.435 101.38C174.302 103.113 174.909 104.977 175.255 106.97C175.255 107.23 175.299 107.533 175.385 107.88C175.472 108.14 175.559 108.4 175.645 108.66C177.639 108.747 179.545 108.053 181.365 106.58C183.272 105.107 185.049 103.157 186.695 100.73C188.429 98.3033 189.989 95.7467 191.375 93.06C192.849 90.3733 194.105 87.86 195.145 85.52C195.319 85.1733 195.535 84.9567 195.795 84.87C196.142 84.6967 196.402 84.61 196.575 84.61C196.922 84.61 197.182 84.7833 197.355 85.13C197.529 85.39 197.485 85.8233 197.225 86.43C196.012 89.1167 194.669 91.9333 193.195 94.88C191.722 97.74 190.075 100.427 188.255 102.94C186.435 105.367 184.485 107.36 182.405 108.92C180.325 110.393 178.115 111.13 175.775 111.13C175.862 111.737 175.905 112.343 175.905 112.95C175.905 113.643 175.905 114.337 175.905 115.03C175.905 119.537 175.342 124.217 174.215 129.07C173.175 133.923 171.659 138.43 169.665 142.59C167.672 146.75 165.332 150.13 162.645 152.73C159.959 155.33 156.969 156.63 153.675 156.63ZM172.135 109.18H172.785C172.699 106.927 172.309 104.977 171.615 103.33C171.095 102.117 170.445 101.077 169.665 100.21C169.145 101.423 168.669 102.55 168.235 103.59C167.889 104.543 167.455 105.627 166.935 106.84C167.715 108.4 169.449 109.18 172.135 109.18ZM155.625 153.12C156.492 153.12 157.532 152.6 158.745 151.56C159.959 150.607 161.129 149.35 162.255 147.79C164.422 144.93 166.329 141.42 167.975 137.26C169.622 133.1 170.922 128.767 171.875 124.26C172.829 119.753 173.262 115.55 173.175 111.65C173.002 111.65 172.785 111.65 172.525 111.65C172.352 111.737 172.179 111.78 172.005 111.78C170.879 111.78 169.709 111.563 168.495 111.13C167.282 110.697 166.285 110.177 165.505 109.57C163.252 115.377 161.172 121.097 159.265 126.73C157.272 132.45 155.755 137.477 154.715 141.81C154.369 143.457 154.109 144.887 153.935 146.1C153.762 147.313 153.675 148.353 153.675 149.22C153.675 151.82 154.325 153.12 155.625 153.12ZM203.893 111.52C200.686 111.52 197.783 110.48 195.183 108.4C192.669 106.32 191.413 103.157 191.413 98.91C191.413 95.01 192.366 90.85 194.273 86.43C196.179 81.9233 198.606 77.98 201.553 74.6C204.066 71.6533 206.883 69.2267 210.003 67.32C213.123 65.4133 216.069 64.46 218.843 64.46C220.749 64.46 222.396 64.98 223.783 66.02C225.256 67.1467 225.993 68.75 225.993 70.83C225.993 72.9967 225.169 75.38 223.523 77.98C221.876 80.58 219.536 83.0067 216.503 85.26C215.203 86.2133 213.556 87.1233 211.563 87.99C209.569 88.8567 207.576 89.5933 205.583 90.2C203.589 90.72 201.943 90.98 200.643 90.98C200.209 92.02 199.776 93.4067 199.343 95.14C198.996 96.8733 198.823 98.65 198.823 100.47C198.823 102.637 199.256 104.587 200.123 106.32C200.989 108.053 202.593 108.92 204.933 108.92C207.793 108.92 210.393 108.097 212.733 106.45C215.073 104.803 217.153 102.767 218.973 100.34C220.793 97.8267 222.309 95.3133 223.523 92.8C224.823 90.2867 225.863 88.1633 226.643 86.43C227.163 85.2167 227.856 84.61 228.723 84.61C229.156 84.61 229.373 84.8267 229.373 85.26C229.373 85.6067 229.243 86.04 228.983 86.56C227.769 89.16 226.469 91.9333 225.083 94.88C223.696 97.74 222.049 100.47 220.143 103.07C218.236 105.583 215.939 107.62 213.253 109.18C210.653 110.74 207.533 111.52 203.893 111.52ZM201.553 88.64C202.766 88.64 204.803 88.2067 207.663 87.34C210.523 86.3867 213.123 84.9133 215.463 82.92C217.716 80.9267 219.449 78.76 220.663 76.42C221.876 73.9933 222.483 71.9567 222.483 70.31C222.483 68.4033 221.789 67.45 220.403 67.45C219.363 67.45 217.933 68.1433 216.113 69.53C214.293 70.9167 212.039 73.2567 209.353 76.55C207.706 78.63 206.146 80.8833 204.673 83.31C203.199 85.7367 202.159 87.5133 201.553 88.64ZM209.359 152.47C204.852 152.47 201.646 151.56 199.739 149.74C197.832 148.007 196.879 145.927 196.879 143.5C196.879 142.2 197.052 141.073 197.399 140.12C197.746 139.167 198.266 137.953 198.959 136.48C200.172 133.967 201.862 131.8 204.029 129.98C206.196 128.16 208.536 126.687 211.049 125.56C215.556 123.48 220.669 121.79 226.389 120.49C232.196 119.19 237.742 117.76 243.029 116.2C244.676 113.34 246.192 110.09 247.579 106.45C248.966 102.723 250.222 99.1267 251.349 95.66C252.476 92.1067 253.386 89.2033 254.079 86.95C253.039 88.8567 251.696 91.1967 250.049 93.97C248.489 96.6567 246.712 99.3 244.719 101.9C242.726 104.5 240.559 106.667 238.219 108.4C235.966 110.133 233.582 111 231.069 111C230.116 111 228.946 110.783 227.559 110.35C226.259 109.917 225.089 109.137 224.049 108.01C223.096 106.797 222.619 105.02 222.619 102.68C222.619 100.427 223.139 98.26 224.179 96.18C225.306 94.0133 226.346 91.9333 227.299 89.94C227.039 89.94 226.736 89.8533 226.389 89.68C226.129 89.5067 225.999 89.2467 225.999 88.9C225.999 88.5533 226.086 88.2067 226.259 87.86C226.606 87.1667 226.996 86.43 227.429 85.65C227.862 84.87 228.252 84.0467 228.599 83.18C229.899 80.4933 231.199 77.9367 232.499 75.51C233.799 72.9967 234.926 70.7867 235.879 68.88C236.832 66.9733 238.479 66.02 240.819 66.02H248.879C248.272 66.54 247.492 67.1467 246.539 67.84C245.672 68.4467 244.849 69.4 244.069 70.7C241.729 74.6867 239.692 78.5433 237.959 82.27C236.226 85.91 234.362 89.81 232.369 93.97C231.416 95.9633 230.722 97.7833 230.289 99.43C229.856 101.077 229.639 102.507 229.639 103.72C229.639 106.58 230.592 108.01 232.499 108.01C234.579 108.01 237.092 106.32 240.039 102.94C242.466 100.08 244.892 96.7 247.319 92.8C249.832 88.8133 252.216 84.74 254.469 80.58C256.809 76.3333 258.846 72.4333 260.579 68.88C261.532 66.9733 263.222 66.02 265.649 66.02H272.799C270.286 67.7533 268.336 70.0067 266.949 72.78C265.649 75.5533 264.176 79.1067 262.529 83.44C260.709 88.2067 258.976 93.1467 257.329 98.26C255.769 103.287 253.992 108.357 251.999 113.47C254.859 112.517 258.066 111.043 261.619 109.05C265.259 107.057 268.336 104.197 270.849 100.47C272.842 97.5233 274.532 94.7067 275.919 92.02C277.392 89.2467 278.432 87.2533 279.039 86.04C279.386 85.1733 279.862 84.74 280.469 84.74C281.076 84.74 281.379 85.13 281.379 85.91C281.379 86.3433 281.249 86.82 280.989 87.34C278.736 91.8467 276.699 95.66 274.879 98.78C273.146 101.813 271.196 104.457 269.029 106.71C266.949 108.877 264.392 110.783 261.359 112.43C258.326 114.163 254.469 115.897 249.789 117.63C247.709 121.357 245.326 125.213 242.639 129.2C240.039 133.273 237.049 137.043 233.669 140.51C230.376 144.063 226.692 146.923 222.619 149.09C218.632 151.343 214.212 152.47 209.359 152.47ZM206.239 149.87C209.099 149.87 212.046 149.003 215.079 147.27C218.112 145.537 221.059 143.327 223.919 140.64C226.779 138.04 229.379 135.353 231.719 132.58C234.146 129.893 236.096 127.51 237.569 125.43C238.002 124.823 238.479 124.043 238.999 123.09C239.519 122.137 240.039 121.227 240.559 120.36C236.312 121.487 231.632 122.7 226.519 124C221.492 125.387 217.116 126.903 213.389 128.55C209.229 130.283 205.979 132.753 203.639 135.96C201.212 139.167 199.999 142.027 199.999 144.54C199.999 146.1 200.519 147.357 201.559 148.31C202.512 149.35 204.072 149.87 206.239 149.87ZM307.167 111.39C306.213 111.477 305.13 111.26 303.917 110.74C302.703 110.22 301.62 109.267 300.667 107.88C299.8 106.493 299.367 104.543 299.367 102.03C299.367 99.95 299.757 97.4367 300.537 94.49C299.497 96.1367 298.153 98.1733 296.507 100.6C294.86 102.94 293.083 105.02 291.177 106.84C289.53 108.4 287.97 109.527 286.497 110.22C285.023 110.913 283.68 111.26 282.467 111.26C280.213 111.26 278.393 110.263 277.007 108.27C275.62 106.19 274.927 103.503 274.927 100.21C274.927 96.7433 275.793 92.8 277.527 88.38C279.26 83.96 282.077 79.3667 285.977 74.6C288.49 71.5667 291.523 69.14 295.077 67.32C298.717 65.4133 302.27 64.46 305.737 64.46C307.73 64.46 309.637 64.8067 311.457 65.5C313.277 66.1067 314.88 67.1467 316.267 68.62C316.873 69.2267 317.177 69.92 317.177 70.7C317.177 71.22 316.96 71.6533 316.527 72C316.093 72.3467 315.53 72.4333 314.837 72.26C313.883 69.2267 311.847 67.71 308.727 67.71C307.253 67.71 305.563 68.1867 303.657 69.14C300.71 70.7 297.633 73.2567 294.427 76.81C291.307 80.3633 288.577 84.0467 286.237 87.86C285.89 88.38 285.327 89.3767 284.547 90.85C283.853 92.3233 283.16 93.97 282.467 95.79C281.773 97.61 281.297 99.3867 281.037 101.12C280.95 101.64 280.907 102.03 280.907 102.29C280.907 102.463 280.907 102.767 280.907 103.2C280.907 106.06 281.99 107.49 284.157 107.49C286.757 107.49 289.703 105.583 292.997 101.77C295.25 98.9967 297.287 96.0933 299.107 93.06C300.927 90.0267 302.79 86.7767 304.697 83.31C305.997 80.97 307.21 79.02 308.337 77.46C309.463 75.9 311.067 75.12 313.147 75.12C314.1 75.12 315.053 75.25 316.007 75.51C316.96 75.77 317.957 75.8133 318.997 75.64C318.303 76.3333 317.35 77.6333 316.137 79.54C315.01 81.4467 313.797 83.6133 312.497 86.04C311.197 88.4667 310.027 90.9367 308.987 93.45C307.947 95.9633 307.21 98.13 306.777 99.95C306.69 100.47 306.56 101.207 306.387 102.16C306.3 103.113 306.257 103.807 306.257 104.24C306.257 106.667 306.95 107.88 308.337 107.88C309.723 107.88 311.197 107.057 312.757 105.41C314.403 103.763 316.007 101.727 317.567 99.3C319.127 96.8733 320.557 94.4467 321.857 92.02C323.157 89.5067 324.197 87.47 324.977 85.91C325.323 85.0433 325.843 84.61 326.537 84.61C326.97 84.61 327.187 84.9133 327.187 85.52C327.187 85.78 327.057 86.2567 326.797 86.95C325.757 89.1167 324.5 91.5867 323.027 94.36C321.553 97.0467 319.95 99.69 318.217 102.29C316.483 104.803 314.663 106.927 312.757 108.66C310.937 110.307 309.073 111.217 307.167 111.39Z" fill="#E7C5C4"/>
<path d="M255.375 144V143.175C256.008 143.158 256.442 143.017 256.675 142.75C256.908 142.467 257.033 142.092 257.05 141.625C257.083 141.142 257.1 140.592 257.1 139.975V129.475C257.1 129.025 257.108 128.642 257.125 128.325C257.142 127.992 257.158 127.717 257.175 127.5C256.875 127.517 256.575 127.533 256.275 127.55C255.975 127.567 255.675 127.583 255.375 127.6V126.5C256.292 126.483 257.208 126.475 258.125 126.475C259.058 126.458 260.025 126.45 261.025 126.45C262.958 126.45 264.467 126.792 265.55 127.475C266.65 128.158 267.183 129.242 267.15 130.725C267.15 131.258 266.992 131.792 266.675 132.325C266.375 132.858 265.917 133.333 265.3 133.75C264.7 134.15 263.942 134.433 263.025 134.6V134.65C264.858 134.65 266.242 135.075 267.175 135.925C268.108 136.758 268.575 137.817 268.575 139.1C268.575 140.117 268.317 140.992 267.8 141.725C267.283 142.458 266.583 143.025 265.7 143.425C264.817 143.808 263.808 144 262.675 144H255.375ZM259.2 143C259.467 143.017 259.783 143.033 260.15 143.05C260.533 143.05 260.883 143.05 261.2 143.05C261.533 143.05 261.75 143.05 261.85 143.05C263.133 143.05 264.167 142.733 264.95 142.1C265.75 141.45 266.15 140.5 266.15 139.25C266.15 138.233 265.95 137.442 265.55 136.875C265.15 136.308 264.625 135.908 263.975 135.675C263.325 135.442 262.617 135.325 261.85 135.325C261.35 135.325 260.892 135.333 260.475 135.35C260.075 135.35 259.675 135.367 259.275 135.4V141.05C259.275 141.5 259.267 141.883 259.25 142.2C259.25 142.517 259.233 142.783 259.2 143ZM259.275 134.425L261.1 134.375C262.05 134.358 262.8 134.167 263.35 133.8C263.9 133.417 264.292 132.942 264.525 132.375C264.775 131.808 264.892 131.217 264.875 130.6C264.858 129.7 264.65 129.017 264.25 128.55C263.867 128.083 263.392 127.767 262.825 127.6C262.258 127.433 261.7 127.35 261.15 127.35C260.6 127.35 260.192 127.425 259.925 127.575C259.658 127.725 259.483 127.975 259.4 128.325C259.317 128.675 259.275 129.158 259.275 129.775V134.425ZM270.427 150.375V149.625C270.943 149.625 271.302 149.492 271.502 149.225C271.702 148.975 271.818 148.617 271.852 148.15C271.885 147.7 271.902 147.175 271.902 146.575L271.952 134.5C271.952 134.233 271.952 133.967 271.952 133.7C271.968 133.433 272.002 133.158 272.052 132.875C271.752 132.892 271.452 132.908 271.152 132.925C270.868 132.942 270.577 132.958 270.277 132.975V131.925C271.01 131.925 271.56 131.892 271.927 131.825C272.31 131.758 272.585 131.675 272.752 131.575C272.935 131.475 273.085 131.367 273.202 131.25H273.952C273.968 131.417 273.985 131.617 274.002 131.85C274.018 132.067 274.035 132.317 274.052 132.6C274.552 132.15 275.143 131.792 275.827 131.525C276.527 131.242 277.227 131.1 277.927 131.1C278.893 131.1 279.793 131.35 280.627 131.85C281.46 132.35 282.135 133.067 282.652 134C283.168 134.917 283.427 136.017 283.427 137.3C283.427 138.717 283.127 139.958 282.527 141.025C281.943 142.092 281.168 142.925 280.202 143.525C279.235 144.108 278.185 144.4 277.052 144.4C276.468 144.4 275.927 144.325 275.427 144.175C274.943 144.042 274.485 143.842 274.052 143.575V147.725C274.052 148.058 274.043 148.35 274.027 148.6C274.027 148.867 274.002 149.142 273.952 149.425C274.218 149.408 274.477 149.392 274.727 149.375C274.993 149.375 275.26 149.367 275.527 149.35V150.375H270.427ZM277.002 143.4C277.802 143.4 278.485 143.158 279.052 142.675C279.635 142.175 280.077 141.5 280.377 140.65C280.693 139.783 280.852 138.8 280.852 137.7C280.852 136.8 280.718 135.942 280.452 135.125C280.202 134.292 279.793 133.617 279.227 133.1C278.677 132.583 277.943 132.325 277.027 132.325C276.46 132.325 275.91 132.467 275.377 132.75C274.86 133.017 274.427 133.342 274.077 133.725C274.077 133.792 274.077 133.892 274.077 134.025C274.093 134.142 274.102 134.358 274.102 134.675C274.102 134.975 274.102 135.433 274.102 136.05C274.102 136.65 274.093 137.467 274.077 138.5C274.077 139.533 274.077 140.842 274.077 142.425C274.493 142.742 274.943 142.983 275.427 143.15C275.927 143.317 276.452 143.4 277.002 143.4ZM291.619 144.4C290.469 144.4 289.427 144.133 288.494 143.6C287.577 143.05 286.852 142.283 286.319 141.3C285.785 140.3 285.519 139.125 285.519 137.775C285.519 136.608 285.777 135.517 286.294 134.5C286.827 133.483 287.569 132.667 288.519 132.05C289.469 131.417 290.569 131.1 291.819 131.1C292.519 131.1 293.169 131.217 293.769 131.45C294.385 131.667 294.927 132.008 295.394 132.475C295.86 132.925 296.227 133.5 296.494 134.2C296.76 134.883 296.894 135.692 296.894 136.625L288.094 136.775C288.094 138.042 288.227 139.158 288.494 140.125C288.777 141.075 289.227 141.817 289.844 142.35C290.46 142.867 291.252 143.125 292.219 143.125C292.735 143.125 293.26 143.033 293.794 142.85C294.344 142.667 294.852 142.417 295.319 142.1C295.785 141.783 296.16 141.433 296.444 141.05L297.044 141.55C296.594 142.25 296.052 142.808 295.419 143.225C294.785 143.642 294.135 143.942 293.469 144.125C292.802 144.308 292.185 144.4 291.619 144.4ZM288.169 135.725H294.544C294.544 135.125 294.452 134.55 294.269 134C294.102 133.433 293.819 132.975 293.419 132.625C293.019 132.258 292.494 132.075 291.844 132.075C290.877 132.075 290.069 132.367 289.419 132.95C288.785 133.517 288.369 134.442 288.169 135.725ZM298.819 144V143.25C299.352 143.267 299.71 143.125 299.894 142.825C300.077 142.508 300.202 142.092 300.269 141.575L301.194 133.825C301.227 133.592 301.26 133.358 301.294 133.125C301.327 132.892 301.352 132.667 301.369 132.45L299.844 132.525V131.5H303.169L306.469 139.225C306.602 139.542 306.735 139.858 306.869 140.175C307.002 140.492 307.135 140.808 307.269 141.125C307.402 140.825 307.527 140.533 307.644 140.25C307.76 139.95 307.877 139.65 307.994 139.35L311.219 131.5H314.169V132.25C313.702 132.25 313.352 132.383 313.119 132.65C312.885 132.917 312.819 133.383 312.919 134.05L314.069 141.65C314.119 142.133 314.119 142.592 314.069 143.025L315.694 142.975V144H310.644V143.25C311.16 143.267 311.535 143.108 311.769 142.775C312.019 142.425 312.085 141.875 311.969 141.125L310.994 134.7L307.169 144H306.169L303.194 136.75C303.044 136.367 302.885 135.983 302.719 135.6C302.569 135.217 302.419 134.833 302.269 134.45C302.219 134.833 302.169 135.217 302.119 135.6C302.085 135.983 302.044 136.367 301.994 136.75L301.394 141.575C301.377 141.792 301.335 142.042 301.269 142.325C301.219 142.592 301.16 142.825 301.094 143.025L302.669 142.975V144H298.819ZM316.901 144V143.25C317.284 143.25 317.609 143.15 317.876 142.95C318.159 142.733 318.451 142.425 318.751 142.025C319.067 141.625 319.459 141.133 319.926 140.55L320.826 139.425C321.009 139.192 321.192 139.025 321.376 138.925C321.559 138.808 321.759 138.717 321.976 138.65C320.709 138.433 319.817 138.008 319.301 137.375C318.801 136.742 318.551 136.017 318.551 135.2C318.551 134.4 318.742 133.725 319.126 133.175C319.509 132.625 320.009 132.208 320.626 131.925C321.259 131.642 321.934 131.5 322.651 131.5H328.976V132.25C328.576 132.25 328.267 132.342 328.051 132.525C327.834 132.692 327.684 132.933 327.601 133.25C327.517 133.55 327.476 133.925 327.476 134.375V141.35C327.476 141.683 327.467 141.983 327.451 142.25C327.451 142.5 327.426 142.767 327.376 143.05L328.951 142.975V144H323.851V143.25C324.501 143.25 324.909 143.033 325.076 142.6C325.242 142.15 325.326 141.625 325.326 141.025V139L323.601 139.025C323.384 139.225 323.151 139.492 322.901 139.825C322.651 140.158 322.409 140.492 322.176 140.825C321.959 141.158 321.776 141.433 321.626 141.65C321.209 142.233 320.759 142.775 320.276 143.275C319.792 143.758 319.326 144 318.876 144H316.901ZM323.551 138.1C323.917 138.1 324.234 138.1 324.501 138.1C324.784 138.083 325.059 138.067 325.326 138.05V133.925C325.326 133.592 325.326 133.317 325.326 133.1C325.342 132.867 325.359 132.675 325.376 132.525C325.109 132.492 324.767 132.483 324.351 132.5C323.934 132.5 323.667 132.5 323.551 132.5C322.784 132.5 322.126 132.7 321.576 133.1C321.042 133.5 320.776 134.183 320.776 135.15C320.776 135.967 321.017 136.667 321.501 137.25C322.001 137.817 322.684 138.1 323.551 138.1ZM337.742 144V143.25C338.258 143.25 338.617 143.125 338.817 142.875C339.017 142.608 339.133 142.25 339.167 141.8C339.217 141.333 339.242 140.8 339.242 140.2V134.15C339.242 133.817 339.242 133.525 339.242 133.275C339.258 133.008 339.292 132.733 339.342 132.45L337.767 132.525V131.5H350.917V132.25C350.417 132.25 350.058 132.383 349.842 132.65C349.642 132.9 349.525 133.258 349.492 133.725C349.458 134.175 349.442 134.7 349.442 135.3L349.392 141.35C349.392 141.683 349.383 141.983 349.367 142.25C349.367 142.5 349.342 142.767 349.292 143.05L350.867 142.975V144H345.742V143.25C346.258 143.25 346.617 143.125 346.817 142.875C347.017 142.608 347.133 142.25 347.167 141.8C347.217 141.333 347.242 140.8 347.242 140.2L347.267 134.15C347.267 133.817 347.267 133.525 347.267 133.275C347.283 133.008 347.317 132.733 347.367 132.45L342.917 132.5C342.4 132.5 342.042 132.608 341.842 132.825C341.642 133.042 341.525 133.358 341.492 133.775C341.458 134.192 341.433 134.7 341.417 135.3L341.392 141.35C341.392 141.683 341.383 141.983 341.367 142.25C341.367 142.5 341.342 142.767 341.292 143.05L342.867 142.975V144H337.742ZM358.272 132.25C357.756 132.25 357.397 132.383 357.197 132.65C356.997 132.9 356.881 133.258 356.847 133.725C356.814 134.175 356.789 134.7 356.772 135.3L356.747 141.35C356.747 141.683 356.739 141.983 356.722 142.25C356.722 142.5 356.697 142.767 356.647 143.05C356.914 143.033 357.172 143.025 357.422 143.025C357.689 143.008 357.956 142.992 358.222 142.975V144H353.122V143.25C353.639 143.25 353.997 143.125 354.197 142.875C354.397 142.608 354.514 142.25 354.547 141.8C354.597 141.333 354.622 140.8 354.622 140.2V134.15C354.622 133.817 354.622 133.525 354.622 133.275C354.639 133.008 354.672 132.733 354.722 132.45C354.456 132.467 354.189 132.483 353.922 132.5C353.672 132.5 353.414 132.508 353.147 132.525V131.5H358.272V132.25ZM363.172 132.7L363.972 133.3L356.297 142.925L355.447 142.225L363.172 132.7ZM366.597 132.25C366.097 132.25 365.739 132.383 365.522 132.65C365.322 132.9 365.206 133.258 365.172 133.725C365.139 134.175 365.122 134.7 365.122 135.3L365.072 141.35C365.072 141.683 365.064 141.983 365.047 142.25C365.047 142.5 365.031 142.767 364.997 143.05C365.264 143.033 365.522 143.025 365.772 143.025C366.039 143.008 366.306 142.992 366.572 142.975V144H361.447V143.25C361.964 143.25 362.322 143.125 362.522 142.875C362.722 142.608 362.839 142.25 362.872 141.8C362.922 141.333 362.947 140.8 362.947 140.2L362.972 134.15C362.972 133.817 362.972 133.525 362.972 133.275C362.989 133.008 363.022 132.733 363.072 132.45C362.806 132.467 362.539 132.483 362.272 132.5C362.022 132.5 361.764 132.508 361.497 132.525V131.5H366.597V132.25ZM371.296 144V143.25C371.813 143.25 372.171 143.125 372.371 142.875C372.571 142.608 372.688 142.25 372.721 141.8C372.771 141.333 372.796 140.8 372.796 140.2V134.15C372.796 133.817 372.796 133.542 372.796 133.325C372.813 133.092 372.846 132.833 372.896 132.55H371.121C370.455 132.55 369.963 132.742 369.646 133.125C369.346 133.508 369.196 134.225 369.196 135.275H368.246L368.346 131.5H379.396L379.521 135.275H378.571C378.555 134.225 378.396 133.508 378.096 133.125C377.813 132.742 377.28 132.55 376.496 132.55H374.946V141.35C374.946 141.683 374.938 141.983 374.921 142.25C374.921 142.5 374.896 142.767 374.846 143.05L376.421 142.975V144H371.296ZM381.174 144V143.25C381.791 143.233 382.191 143.042 382.374 142.675C382.574 142.292 382.674 141.775 382.674 141.125V134.15C382.674 133.817 382.674 133.525 382.674 133.275C382.691 133.008 382.724 132.733 382.774 132.45C382.508 132.467 382.241 132.483 381.974 132.5C381.724 132.5 381.466 132.508 381.199 132.525V131.5H386.299V132.25C385.799 132.25 385.441 132.367 385.224 132.6C385.024 132.833 384.908 133.125 384.874 133.475C384.841 133.808 384.824 134.133 384.824 134.45V136.75L386.374 136.7C387.724 136.667 388.783 136.817 389.549 137.15C390.333 137.467 390.883 137.908 391.199 138.475C391.533 139.025 391.699 139.633 391.699 140.3C391.699 141.1 391.508 141.775 391.124 142.325C390.758 142.875 390.266 143.292 389.649 143.575C389.033 143.858 388.358 144 387.624 144H381.174ZM384.774 142.975C384.958 142.992 385.183 143 385.449 143C385.733 143 385.991 143 386.224 143C386.474 143 386.641 143 386.724 143C387.491 143 388.141 142.8 388.674 142.4C389.224 142 389.499 141.317 389.499 140.35C389.499 139.5 389.249 138.842 388.749 138.375C388.266 137.892 387.591 137.65 386.724 137.65C386.358 137.65 386.016 137.658 385.699 137.675C385.399 137.675 385.108 137.683 384.824 137.7V141.575C384.824 141.892 384.816 142.167 384.799 142.4C384.799 142.633 384.791 142.825 384.774 142.975ZM400.163 144V143.25C400.679 143.25 401.038 143.125 401.238 142.875C401.438 142.608 401.554 142.25 401.588 141.8C401.638 141.333 401.663 140.8 401.663 140.2L401.688 134.15C401.688 133.817 401.688 133.525 401.688 133.275C401.704 133.008 401.738 132.733 401.788 132.45C401.521 132.467 401.254 132.483 400.988 132.5C400.738 132.5 400.479 132.508 400.213 132.525V131.5H405.313V132.25C404.813 132.25 404.454 132.383 404.238 132.65C404.038 132.9 403.921 133.258 403.888 133.725C403.854 134.175 403.838 134.7 403.838 135.3L403.813 136.95H404.788L407.838 133.75C408.121 133.467 408.379 133.217 408.613 133C408.846 132.767 409.079 132.575 409.313 132.425L407.613 132.5V131.5H412.162V132.25C411.596 132.3 411.063 132.483 410.563 132.8C410.079 133.1 409.629 133.442 409.213 133.825C408.813 134.208 408.463 134.558 408.163 134.875L406.213 136.925C406.546 137.075 406.829 137.267 407.063 137.5C407.296 137.733 407.529 137.992 407.763 138.275L409.538 140.55C409.621 140.65 409.763 140.842 409.963 141.125C410.179 141.408 410.429 141.717 410.713 142.05C411.013 142.383 411.321 142.667 411.638 142.9C411.971 143.133 412.279 143.25 412.563 143.25V144H410.288C409.821 144 409.379 143.758 408.963 143.275C408.546 142.792 408.104 142.25 407.638 141.65C407.204 141.05 406.813 140.508 406.463 140.025C406.129 139.525 405.821 139.092 405.538 138.725C405.271 138.358 405.029 138.075 404.813 137.875L403.813 137.925L403.788 141.35C403.788 141.683 403.779 141.983 403.763 142.25C403.763 142.5 403.738 142.767 403.688 143.05C403.954 143.033 404.213 143.025 404.463 143.025C404.729 143.008 404.996 142.992 405.263 142.975V144H400.163ZM419.869 144.4C418.703 144.4 417.644 144.133 416.694 143.6C415.744 143.05 414.986 142.3 414.419 141.35C413.869 140.383 413.594 139.283 413.594 138.05C413.594 136.733 413.869 135.55 414.419 134.5C414.969 133.45 415.719 132.625 416.669 132.025C417.619 131.408 418.686 131.1 419.869 131.1C421.036 131.1 422.094 131.383 423.044 131.95C423.994 132.5 424.753 133.25 425.319 134.2C425.886 135.15 426.169 136.233 426.169 137.45C426.169 138.733 425.886 139.908 425.319 140.975C424.769 142.025 424.019 142.858 423.069 143.475C422.119 144.092 421.053 144.4 419.869 144.4ZM420.069 143.4C420.953 143.4 421.653 143.15 422.169 142.65C422.686 142.15 423.053 141.5 423.269 140.7C423.503 139.9 423.619 139.058 423.619 138.175C423.619 137.425 423.544 136.692 423.394 135.975C423.261 135.242 423.044 134.583 422.744 134C422.444 133.4 422.053 132.925 421.569 132.575C421.103 132.225 420.536 132.05 419.869 132.05C419.003 132.05 418.294 132.3 417.744 132.8C417.194 133.3 416.786 133.95 416.519 134.75C416.269 135.55 416.144 136.408 416.144 137.325C416.144 138.358 416.286 139.342 416.569 140.275C416.853 141.192 417.286 141.942 417.869 142.525C418.453 143.108 419.186 143.4 420.069 143.4ZM434.343 150.375V149.625C434.86 149.625 435.218 149.492 435.418 149.225C435.618 148.975 435.735 148.617 435.768 148.15C435.818 147.7 435.852 147.175 435.868 146.575V128.375C435.868 128.108 435.868 127.858 435.868 127.625C435.885 127.375 435.91 127.083 435.943 126.75L434.168 126.85V125.8C434.902 125.8 435.468 125.767 435.868 125.7C436.285 125.633 436.593 125.55 436.793 125.45C437.01 125.35 437.177 125.242 437.293 125.125H437.993V147.725C437.993 148.058 437.985 148.35 437.968 148.6C437.968 148.867 437.943 149.142 437.893 149.425L439.468 149.35V150.375H434.343ZM433.718 144.4C432.752 144.4 431.852 144.15 431.018 143.65C430.185 143.15 429.51 142.442 428.993 141.525C428.477 140.592 428.218 139.483 428.218 138.2C428.218 136.767 428.485 135.525 429.018 134.475C429.552 133.408 430.268 132.583 431.168 132C432.068 131.4 433.077 131.1 434.193 131.1C434.627 131.1 435.102 131.2 435.618 131.4C436.152 131.583 436.635 131.833 437.068 132.15V133.325C436.635 132.975 436.202 132.692 435.768 132.475C435.335 132.242 434.827 132.125 434.243 132.125C433.46 132.125 432.81 132.375 432.293 132.875C431.777 133.358 431.385 134.025 431.118 134.875C430.868 135.725 430.743 136.7 430.743 137.8C430.743 138.467 430.818 139.125 430.968 139.775C431.118 140.425 431.343 141.017 431.643 141.55C431.96 142.067 432.36 142.483 432.843 142.8C433.343 143.1 433.927 143.25 434.593 143.25C435.227 143.25 435.81 143.083 436.343 142.75C436.893 142.417 437.335 142.05 437.668 141.65L437.718 142.775C437.218 143.242 436.61 143.633 435.893 143.95C435.177 144.25 434.452 144.4 433.718 144.4ZM439.768 144.4C439.202 144.4 438.743 144.317 438.393 144.15C438.043 144 437.66 143.758 437.243 143.425V142.25C437.627 142.667 437.985 142.967 438.318 143.15C438.668 143.317 439.177 143.4 439.843 143.4C440.577 143.4 441.185 143.158 441.668 142.675C442.152 142.175 442.518 141.5 442.768 140.65C443.018 139.783 443.143 138.8 443.143 137.7C443.143 137.017 443.068 136.358 442.918 135.725C442.768 135.075 442.535 134.492 442.218 133.975C441.918 133.442 441.518 133.025 441.018 132.725C440.535 132.408 439.952 132.25 439.268 132.25C438.802 132.25 438.385 132.317 438.018 132.45C437.668 132.567 437.31 132.758 436.943 133.025V132.2C437.443 131.817 437.918 131.542 438.368 131.375C438.818 131.192 439.418 131.1 440.168 131.1C441.135 131.1 442.035 131.35 442.868 131.85C443.702 132.35 444.368 133.067 444.868 134C445.385 134.917 445.643 136.017 445.643 137.3C445.643 138.717 445.377 139.958 444.843 141.025C444.31 142.092 443.593 142.925 442.693 143.525C441.81 144.108 440.835 144.4 439.768 144.4ZM453.826 144.4C452.676 144.4 451.634 144.133 450.701 143.6C449.784 143.05 449.059 142.283 448.526 141.3C447.992 140.3 447.726 139.125 447.726 137.775C447.726 136.608 447.984 135.517 448.501 134.5C449.034 133.483 449.776 132.667 450.726 132.05C451.676 131.417 452.776 131.1 454.026 131.1C454.726 131.1 455.376 131.217 455.976 131.45C456.592 131.667 457.134 132.008 457.601 132.475C458.067 132.925 458.434 133.5 458.701 134.2C458.967 134.883 459.101 135.692 459.101 136.625L450.301 136.775C450.301 138.042 450.434 139.158 450.701 140.125C450.984 141.075 451.434 141.817 452.051 142.35C452.667 142.867 453.459 143.125 454.426 143.125C454.942 143.125 455.467 143.033 456.001 142.85C456.551 142.667 457.059 142.417 457.526 142.1C457.992 141.783 458.367 141.433 458.651 141.05L459.251 141.55C458.801 142.25 458.259 142.808 457.626 143.225C456.992 143.642 456.342 143.942 455.676 144.125C455.009 144.308 454.392 144.4 453.826 144.4ZM450.376 135.725H456.751C456.751 135.125 456.659 134.55 456.476 134C456.309 133.433 456.026 132.975 455.626 132.625C455.226 132.258 454.701 132.075 454.051 132.075C453.084 132.075 452.276 132.367 451.626 132.95C450.992 133.517 450.576 134.442 450.376 135.725Z" fill="#E7C5C4"/>
</svg>
