<svg width="405" height="163" viewBox="0 0 405 163" fill="none" xmlns="http://www.w3.org/2000/svg">
<path d="M49.92 124.39C46.7133 124.39 43.42 124.043 40.04 123.35C36.7467 122.657 33.4533 121.617 30.16 120.23C24.7867 117.89 20.4533 114.813 17.16 111C13.8667 107.273 11.4833 103.027 10.01 98.26C8.53667 93.4933 7.8 88.51 7.8 83.31C7.8 77.85 8.45 72.39 9.75 66.93C11.1367 61.47 13.0433 56.27 15.47 51.33C17.8967 46.3033 20.6267 41.84 23.66 37.94C23.0533 35.6867 22.5333 33.0867 22.1 30.14C21.7533 27.1933 21.58 24.2033 21.58 21.17C21.58 16.5767 22.1 12.2 23.14 8.03999C23.4867 6.82666 24.0933 6.21999 24.96 6.21999C25.5667 6.21999 25.87 6.65333 25.87 7.51999C25.87 8.04 25.8267 8.43 25.74 8.68999C25.5667 9.99 25.3933 11.3333 25.22 12.72C25.1333 14.1067 25.09 15.5367 25.09 17.01C25.09 19.9567 25.2633 22.86 25.61 25.72C25.9567 28.58 26.3467 31.2233 26.78 33.65C33.1067 25.4167 40.3433 19.3067 48.49 15.32C56.7233 11.2467 65.3467 9.20999 74.36 9.20999C76.7 9.20999 78.9533 9.33999 81.12 9.6C88.0533 10.38 93.73 12.1133 98.15 14.8C102.57 17.4 105.82 20.6067 107.9 24.42C110.067 28.2333 111.15 32.2633 111.15 36.51C111.15 40.67 110.197 44.7867 108.29 48.86C106.383 52.9333 103.61 56.66 99.97 60.04C96.33 63.3333 91.8667 66.02 86.58 68.1C81.38 70.0933 75.4867 71.09 68.9 71.09C67.4267 71.09 65.9533 71.0467 64.48 70.96C63.0067 70.8733 61.4033 70.7 59.67 70.44C52.8233 69.4 46.5833 67.19 40.95 63.81C35.3167 60.43 30.7667 55.23 27.3 48.21C26.6067 49.0767 25.6533 50.8533 24.44 53.54C23.2267 56.14 22.0133 59.3033 20.8 63.03C19.5867 66.7567 18.5467 70.83 17.68 75.25C16.8133 79.5833 16.38 83.96 16.38 88.38C16.38 92.6267 16.9433 96.7433 18.07 100.73C19.1967 104.63 21.1467 108.053 23.92 111C26.6933 114.033 30.4633 116.287 35.23 117.76C37.57 118.453 39.9967 118.973 42.51 119.32C45.0233 119.667 47.58 119.84 50.18 119.84C55.2067 119.84 60.19 119.19 65.13 117.89C70.07 116.59 74.6633 114.683 78.91 112.17C84.5433 108.877 88.8767 105.063 91.91 100.73C94.9433 96.31 97.76 91.37 100.36 85.91C100.707 85.0433 101.183 84.61 101.79 84.61C102.223 84.61 102.44 84.9133 102.44 85.52C102.44 85.9533 102.267 86.4733 101.92 87.08C100.1 90.8933 98.28 94.4033 96.46 97.61C94.64 100.73 92.5167 103.633 90.09 106.32C87.6633 109.007 84.5867 111.65 80.86 114.25C76.6133 117.197 71.8467 119.623 66.56 121.53C61.2733 123.437 55.7267 124.39 49.92 124.39ZM68.12 67.71C74.1 67.71 79.3867 66.8433 83.98 65.11C88.5733 63.29 92.43 60.95 95.55 58.09C98.7567 55.1433 101.14 51.8933 102.7 48.34C104.347 44.7867 105.17 41.19 105.17 37.55C105.17 33.9967 104.347 30.6167 102.7 27.41C101.053 24.2033 98.54 21.4733 95.16 19.22C91.8667 16.88 87.62 15.3633 82.42 14.67C80.5133 14.41 78.6067 14.28 76.7 14.28C70.8067 14.28 65 15.5367 59.28 18.05C53.6467 20.4767 48.3167 23.9433 43.29 28.45C38.2633 32.87 33.8 38.07 29.9 44.05C32.9333 51.59 37.18 57.1367 42.64 60.69C48.1867 64.2433 54.5133 66.4533 61.62 67.32C63.8733 67.58 66.04 67.71 68.12 67.71ZM106.323 111C103.029 111 100.603 109.917 99.0427 107.75C97.4827 105.497 96.7027 102.767 96.7027 99.56C96.7027 95.66 97.6127 91.5867 99.4327 87.34C101.166 83.3533 103.376 79.7133 106.063 76.42C108.749 73.1267 111.653 70.4833 114.773 68.49C117.893 66.41 120.926 65.37 123.873 65.37C127.166 65.37 129.593 66.4533 131.153 68.62C132.713 70.7867 133.493 73.5167 133.493 76.81C133.493 80.7967 132.583 84.87 130.763 89.03C129.723 91.37 128.249 93.97 126.343 96.83C124.436 99.6033 122.269 102.16 119.843 104.5C120.363 105.453 121.099 106.277 122.053 106.97C123.006 107.577 124.306 107.88 125.953 107.88C128.033 107.88 129.983 107.013 131.803 105.28C133.709 103.547 135.443 101.467 137.003 99.04C138.563 96.5267 139.949 94.0133 141.163 91.5C142.376 88.9867 143.373 86.95 144.153 85.39C144.413 84.87 144.846 84.61 145.453 84.61C145.799 84.61 146.059 84.7833 146.233 85.13C146.406 85.39 146.363 85.8233 146.103 86.43C145.583 87.73 144.716 89.68 143.503 92.28C142.289 94.7933 140.816 97.4367 139.083 100.21C137.349 102.897 135.356 105.193 133.103 107.1C130.849 109.007 128.336 109.96 125.563 109.96C123.656 109.96 122.009 109.657 120.623 109.05C119.236 108.357 118.109 107.533 117.243 106.58C115.423 107.967 113.603 109.05 111.783 109.83C109.963 110.61 108.143 111 106.323 111ZM108.273 108.14C110.613 108.14 113.126 107.013 115.813 104.76C115.119 103.72 114.599 102.637 114.253 101.51C113.906 100.383 113.733 99.3433 113.733 98.39C113.733 96.83 114.079 95.4867 114.773 94.36C115.553 93.2333 116.723 92.67 118.283 92.67C119.409 92.67 120.319 93.1033 121.013 93.97C121.793 94.75 122.183 95.66 122.183 96.7C122.183 96.96 122.139 97.22 122.053 97.48C122.053 97.6533 122.009 97.87 121.923 98.13C123.396 96.1367 124.783 93.7967 126.083 91.11C128.943 84.9567 130.373 79.8867 130.373 75.9C130.373 73.9067 129.983 72.3467 129.203 71.22C128.423 70.0933 127.253 69.53 125.693 69.53C123.873 69.53 121.879 70.31 119.713 71.87C117.633 73.43 115.596 75.51 113.603 78.11C111.696 80.71 110.006 83.6133 108.533 86.82C107.146 89.7667 106.019 92.6267 105.153 95.4C104.373 98.0867 103.983 100.427 103.983 102.42C103.983 104.153 104.329 105.54 105.023 106.58C105.716 107.62 106.799 108.14 108.273 108.14ZM128.158 156.63C126.251 156.63 124.604 156.153 123.218 155.2C121.744 154.247 121.008 152.383 121.008 149.61C121.008 145.277 122.308 139.383 124.908 131.93C127.508 124.477 130.671 116.287 134.398 107.36C133.358 105.627 132.838 103.807 132.838 101.9C132.838 98.8667 133.704 96.7867 135.438 95.66C136.911 94.4467 138.471 93.97 140.118 94.23C143.238 87.21 146.401 80.32 149.608 73.56C152.814 66.7133 155.891 60.2567 158.838 54.19C161.871 48.1233 164.601 42.7933 167.028 38.2C168.501 35.34 170.018 33.13 171.578 31.57C173.224 30.01 175.348 29.23 177.948 29.23C178.728 29.23 179.638 29.4033 180.678 29.75C181.804 30.01 182.801 30.0967 183.668 30.01C181.674 31.9167 179.161 35.1233 176.128 39.63C173.181 44.05 169.974 49.3367 166.508 55.49C163.041 61.6433 159.488 68.3167 155.848 75.51C152.294 82.6167 148.871 89.8533 145.578 97.22C146.358 98.26 147.138 99.6467 147.918 101.38C148.784 103.113 149.391 104.977 149.738 106.97C149.738 107.23 149.781 107.533 149.868 107.88C149.954 108.14 150.041 108.4 150.128 108.66C152.121 108.747 154.028 108.053 155.848 106.58C157.754 105.107 159.531 103.157 161.178 100.73C162.911 98.3033 164.471 95.7467 165.858 93.06C167.331 90.3733 168.588 87.86 169.628 85.52C169.801 85.1733 170.018 84.9567 170.278 84.87C170.624 84.6967 170.884 84.61 171.058 84.61C171.404 84.61 171.664 84.7833 171.838 85.13C172.011 85.39 171.968 85.8233 171.708 86.43C170.494 89.1167 169.151 91.9333 167.678 94.88C166.204 97.74 164.558 100.427 162.738 102.94C160.918 105.367 158.968 107.36 156.888 108.92C154.808 110.393 152.598 111.13 150.258 111.13C150.344 111.737 150.388 112.343 150.388 112.95C150.388 113.643 150.388 114.337 150.388 115.03C150.388 119.537 149.824 124.217 148.698 129.07C147.658 133.923 146.141 138.43 144.148 142.59C142.154 146.75 139.814 150.13 137.128 152.73C134.441 155.33 131.451 156.63 128.158 156.63ZM146.618 109.18H147.268C147.181 106.927 146.791 104.977 146.098 103.33C145.578 102.117 144.928 101.077 144.148 100.21C143.628 101.423 143.151 102.55 142.718 103.59C142.371 104.543 141.938 105.627 141.418 106.84C142.198 108.4 143.931 109.18 146.618 109.18ZM130.108 153.12C130.974 153.12 132.014 152.6 133.228 151.56C134.441 150.607 135.611 149.35 136.738 147.79C138.904 144.93 140.811 141.42 142.458 137.26C144.104 133.1 145.404 128.767 146.358 124.26C147.311 119.753 147.744 115.55 147.658 111.65C147.484 111.65 147.268 111.65 147.008 111.65C146.834 111.737 146.661 111.78 146.488 111.78C145.361 111.78 144.191 111.563 142.978 111.13C141.764 110.697 140.768 110.177 139.988 109.57C137.734 115.377 135.654 121.097 133.748 126.73C131.754 132.45 130.238 137.477 129.198 141.81C128.851 143.457 128.591 144.887 128.418 146.1C128.244 147.313 128.158 148.353 128.158 149.22C128.158 151.82 128.808 153.12 130.108 153.12ZM153.675 156.63C151.769 156.63 150.122 156.153 148.735 155.2C147.262 154.247 146.525 152.383 146.525 149.61C146.525 145.277 147.825 139.383 150.425 131.93C153.025 124.477 156.189 116.287 159.915 107.36C158.875 105.627 158.355 103.807 158.355 101.9C158.355 98.8667 159.222 96.7867 160.955 95.66C162.429 94.4467 163.989 93.97 165.635 94.23C168.755 87.21 171.919 80.32 175.125 73.56C178.332 66.7133 181.409 60.2567 184.355 54.19C187.389 48.1233 190.119 42.7933 192.545 38.2C194.019 35.34 195.535 33.13 197.095 31.57C198.742 30.01 200.865 29.23 203.465 29.23C204.245 29.23 205.155 29.4033 206.195 29.75C207.322 30.01 208.319 30.0967 209.185 30.01C207.192 31.9167 204.679 35.1233 201.645 39.63C198.699 44.05 195.492 49.3367 192.025 55.49C188.559 61.6433 185.005 68.3167 181.365 75.51C177.812 82.6167 174.389 89.8533 171.095 97.22C171.875 98.26 172.655 99.6467 173.435 101.38C174.302 103.113 174.909 104.977 175.255 106.97C175.255 107.23 175.299 107.533 175.385 107.88C175.472 108.14 175.559 108.4 175.645 108.66C177.639 108.747 179.545 108.053 181.365 106.58C183.272 105.107 185.049 103.157 186.695 100.73C188.429 98.3033 189.989 95.7467 191.375 93.06C192.849 90.3733 194.105 87.86 195.145 85.52C195.319 85.1733 195.535 84.9567 195.795 84.87C196.142 84.6967 196.402 84.61 196.575 84.61C196.922 84.61 197.182 84.7833 197.355 85.13C197.529 85.39 197.485 85.8233 197.225 86.43C196.012 89.1167 194.669 91.9333 193.195 94.88C191.722 97.74 190.075 100.427 188.255 102.94C186.435 105.367 184.485 107.36 182.405 108.92C180.325 110.393 178.115 111.13 175.775 111.13C175.862 111.737 175.905 112.343 175.905 112.95C175.905 113.643 175.905 114.337 175.905 115.03C175.905 119.537 175.342 124.217 174.215 129.07C173.175 133.923 171.659 138.43 169.665 142.59C167.672 146.75 165.332 150.13 162.645 152.73C159.959 155.33 156.969 156.63 153.675 156.63ZM172.135 109.18H172.785C172.699 106.927 172.309 104.977 171.615 103.33C171.095 102.117 170.445 101.077 169.665 100.21C169.145 101.423 168.669 102.55 168.235 103.59C167.889 104.543 167.455 105.627 166.935 106.84C167.715 108.4 169.449 109.18 172.135 109.18ZM155.625 153.12C156.492 153.12 157.532 152.6 158.745 151.56C159.959 150.607 161.129 149.35 162.255 147.79C164.422 144.93 166.329 141.42 167.975 137.26C169.622 133.1 170.922 128.767 171.875 124.26C172.829 119.753 173.262 115.55 173.175 111.65C173.002 111.65 172.785 111.65 172.525 111.65C172.352 111.737 172.179 111.78 172.005 111.78C170.879 111.78 169.709 111.563 168.495 111.13C167.282 110.697 166.285 110.177 165.505 109.57C163.252 115.377 161.172 121.097 159.265 126.73C157.272 132.45 155.755 137.477 154.715 141.81C154.369 143.457 154.109 144.887 153.935 146.1C153.762 147.313 153.675 148.353 153.675 149.22C153.675 151.82 154.325 153.12 155.625 153.12ZM203.893 111.52C200.686 111.52 197.783 110.48 195.183 108.4C192.669 106.32 191.413 103.157 191.413 98.91C191.413 95.01 192.366 90.85 194.273 86.43C196.179 81.9233 198.606 77.98 201.553 74.6C204.066 71.6533 206.883 69.2267 210.003 67.32C213.123 65.4133 216.069 64.46 218.843 64.46C220.749 64.46 222.396 64.98 223.783 66.02C225.256 67.1467 225.993 68.75 225.993 70.83C225.993 72.9967 225.169 75.38 223.523 77.98C221.876 80.58 219.536 83.0067 216.503 85.26C215.203 86.2133 213.556 87.1233 211.563 87.99C209.569 88.8567 207.576 89.5933 205.583 90.2C203.589 90.72 201.943 90.98 200.643 90.98C200.209 92.02 199.776 93.4067 199.343 95.14C198.996 96.8733 198.823 98.65 198.823 100.47C198.823 102.637 199.256 104.587 200.123 106.32C200.989 108.053 202.593 108.92 204.933 108.92C207.793 108.92 210.393 108.097 212.733 106.45C215.073 104.803 217.153 102.767 218.973 100.34C220.793 97.8267 222.309 95.3133 223.523 92.8C224.823 90.2867 225.863 88.1633 226.643 86.43C227.163 85.2167 227.856 84.61 228.723 84.61C229.156 84.61 229.373 84.8267 229.373 85.26C229.373 85.6067 229.243 86.04 228.983 86.56C227.769 89.16 226.469 91.9333 225.083 94.88C223.696 97.74 222.049 100.47 220.143 103.07C218.236 105.583 215.939 107.62 213.253 109.18C210.653 110.74 207.533 111.52 203.893 111.52ZM201.553 88.64C202.766 88.64 204.803 88.2067 207.663 87.34C210.523 86.3867 213.123 84.9133 215.463 82.92C217.716 80.9267 219.449 78.76 220.663 76.42C221.876 73.9933 222.483 71.9567 222.483 70.31C222.483 68.4033 221.789 67.45 220.403 67.45C219.363 67.45 217.933 68.1433 216.113 69.53C214.293 70.9167 212.039 73.2567 209.353 76.55C207.706 78.63 206.146 80.8833 204.673 83.31C203.199 85.7367 202.159 87.5133 201.553 88.64ZM241.469 58.22C240.169 58.22 239.086 57.7867 238.219 56.92C237.439 55.9667 237.049 54.84 237.049 53.54C237.049 51.8933 237.699 50.4633 238.999 49.25C240.299 48.0367 241.729 47.43 243.289 47.43C244.676 47.43 245.802 47.8633 246.669 48.73C247.536 49.5967 247.969 50.6367 247.969 51.85C247.969 53.4967 247.319 54.97 246.019 56.27C244.719 57.57 243.202 58.22 241.469 58.22ZM230.939 111C227.732 111 225.479 110.09 224.179 108.27C222.879 106.363 222.229 104.197 222.229 101.77C222.229 100.47 222.359 99.17 222.619 97.87C222.966 96.4833 223.356 95.2267 223.789 94.1L232.499 71.87C232.759 71.1767 232.889 70.57 232.889 70.05C232.889 69.1833 232.672 68.4467 232.239 67.84C231.806 67.1467 231.502 66.67 231.329 66.41L238.479 66.15C239.779 66.0633 240.689 66.2367 241.209 66.67C241.816 67.0167 242.119 67.45 242.119 67.97C242.119 68.49 241.816 69.4433 241.209 70.83L230.419 96.18C230.419 96.18 230.159 96.7433 229.639 97.87C229.206 98.91 228.946 99.6033 228.859 99.95C228.599 101.25 228.426 102.073 228.339 102.42C228.252 102.767 228.209 102.983 228.209 103.07C228.209 103.157 228.209 103.503 228.209 104.11C228.209 105.237 228.469 106.19 228.989 106.97C229.596 107.75 230.592 108.14 231.979 108.14C232.846 108.14 233.842 107.88 234.969 107.36C236.096 106.84 236.919 106.32 237.439 105.8C239.606 103.547 241.729 100.6 243.809 96.96C245.976 93.2333 247.969 89.55 249.789 85.91C250.136 85.0433 250.569 84.61 251.089 84.61C251.522 84.61 251.739 84.9133 251.739 85.52C251.739 85.8667 251.609 86.3867 251.349 87.08C250.482 88.9 249.399 91.1533 248.099 93.84C246.799 96.5267 245.239 99.2133 243.419 101.9C241.686 104.5 239.779 106.667 237.699 108.4C235.619 110.133 233.366 111 230.939 111ZM277.84 111.39C276.887 111.477 275.804 111.26 274.59 110.74C273.377 110.22 272.294 109.267 271.34 107.88C270.474 106.493 270.04 104.543 270.04 102.03C270.04 99.95 270.43 97.4367 271.21 94.49C270.17 96.1367 268.827 98.1733 267.18 100.6C265.534 102.94 263.757 105.02 261.85 106.84C260.204 108.4 258.644 109.527 257.17 110.22C255.697 110.913 254.354 111.26 253.14 111.26C250.887 111.26 249.067 110.263 247.68 108.27C246.294 106.19 245.6 103.503 245.6 100.21C245.6 96.7433 246.467 92.8 248.2 88.38C249.934 83.96 252.75 79.3667 256.65 74.6C259.164 71.5667 262.197 69.14 265.75 67.32C269.39 65.4133 272.944 64.46 276.41 64.46C278.404 64.46 280.31 64.8067 282.13 65.5C283.95 66.1067 285.554 67.1467 286.94 68.62C287.547 69.2267 287.85 69.92 287.85 70.7C287.85 71.22 287.634 71.6533 287.2 72C286.767 72.3467 286.204 72.4333 285.51 72.26C284.557 69.2267 282.52 67.71 279.4 67.71C277.927 67.71 276.237 68.1867 274.33 69.14C271.384 70.7 268.307 73.2567 265.1 76.81C261.98 80.3633 259.25 84.0467 256.91 87.86C256.564 88.38 256 89.3767 255.22 90.85C254.527 92.3233 253.834 93.97 253.14 95.79C252.447 97.61 251.97 99.3867 251.71 101.12C251.624 101.64 251.58 102.03 251.58 102.29C251.58 102.463 251.58 102.767 251.58 103.2C251.58 106.06 252.664 107.49 254.83 107.49C257.43 107.49 260.377 105.583 263.67 101.77C265.924 98.9967 267.96 96.0933 269.78 93.06C271.6 90.0267 273.464 86.7767 275.37 83.31C276.67 80.97 277.884 79.02 279.01 77.46C280.137 75.9 281.74 75.12 283.82 75.12C284.774 75.12 285.727 75.25 286.68 75.51C287.634 75.77 288.63 75.8133 289.67 75.64C288.977 76.3333 288.024 77.6333 286.81 79.54C285.684 81.4467 284.47 83.6133 283.17 86.04C281.87 88.4667 280.7 90.9367 279.66 93.45C278.62 95.9633 277.884 98.13 277.45 99.95C277.364 100.47 277.234 101.207 277.06 102.16C276.974 103.113 276.93 103.807 276.93 104.24C276.93 106.667 277.624 107.88 279.01 107.88C280.397 107.88 281.87 107.057 283.43 105.41C285.077 103.763 286.68 101.727 288.24 99.3C289.8 96.8733 291.23 94.4467 292.53 92.02C293.83 89.5067 294.87 87.47 295.65 85.91C295.997 85.0433 296.517 84.61 297.21 84.61C297.644 84.61 297.86 84.9133 297.86 85.52C297.86 85.78 297.73 86.2567 297.47 86.95C296.43 89.1167 295.174 91.5867 293.7 94.36C292.227 97.0467 290.624 99.69 288.89 102.29C287.157 104.803 285.337 106.927 283.43 108.66C281.61 110.307 279.747 111.217 277.84 111.39Z" fill="#E7C5C4"/>
<path d="M227.675 136.75H230.5C231.55 136.75 232.458 136.6 233.225 136.3C234.008 136 234.617 135.558 235.05 134.975C235.483 134.392 235.7 133.692 235.7 132.875C235.7 131.875 235.483 131.058 235.05 130.425C234.617 129.775 234.008 129.292 233.225 128.975C232.458 128.658 231.55 128.5 230.5 128.5H226V146H230.75C231.883 146 232.892 145.817 233.775 145.45C234.675 145.067 235.383 144.5 235.9 143.75C236.433 142.983 236.7 142.025 236.7 140.875C236.7 140.075 236.55 139.383 236.25 138.8C235.95 138.217 235.525 137.742 234.975 137.375C234.442 136.992 233.817 136.708 233.1 136.525C232.383 136.342 231.6 136.25 230.75 136.25H227.675V137.425H230.75C231.317 137.425 231.833 137.5 232.3 137.65C232.767 137.783 233.167 137.992 233.5 138.275C233.85 138.558 234.117 138.908 234.3 139.325C234.483 139.742 234.575 140.217 234.575 140.75C234.575 141.467 234.408 142.075 234.075 142.575C233.758 143.075 233.308 143.458 232.725 143.725C232.158 143.992 231.5 144.125 230.75 144.125H228.125V130.375H230.5C231.383 130.375 232.117 130.608 232.7 131.075C233.283 131.525 233.575 132.167 233.575 133C233.575 133.55 233.442 134.017 233.175 134.4C232.908 134.783 232.542 135.075 232.075 135.275C231.608 135.475 231.083 135.575 230.5 135.575H227.675V136.75ZM241.69 151.5V134.5H239.69V151.5H241.69ZM251.315 140.25C251.315 139 251.057 137.933 250.54 137.05C250.024 136.15 249.332 135.458 248.465 134.975C247.615 134.492 246.665 134.25 245.615 134.25C244.665 134.25 243.824 134.492 243.09 134.975C242.374 135.458 241.807 136.15 241.39 137.05C240.99 137.933 240.79 139 240.79 140.25C240.79 141.483 240.99 142.55 241.39 143.45C241.807 144.35 242.374 145.042 243.09 145.525C243.824 146.008 244.665 146.25 245.615 146.25C246.665 146.25 247.615 146.008 248.465 145.525C249.332 145.042 250.024 144.35 250.54 143.45C251.057 142.55 251.315 141.483 251.315 140.25ZM249.29 140.25C249.29 141.133 249.107 141.883 248.74 142.5C248.39 143.117 247.915 143.583 247.315 143.9C246.732 144.217 246.082 144.375 245.365 144.375C244.782 144.375 244.207 144.217 243.64 143.9C243.074 143.583 242.607 143.117 242.24 142.5C241.874 141.883 241.69 141.133 241.69 140.25C241.69 139.367 241.874 138.617 242.24 138C242.607 137.383 243.074 136.917 243.64 136.6C244.207 136.283 244.782 136.125 245.365 136.125C246.082 136.125 246.732 136.283 247.315 136.6C247.915 136.917 248.39 137.383 248.74 138C249.107 138.617 249.29 139.367 249.29 140.25ZM254.348 140.75H264.173C264.19 140.65 264.198 140.55 264.198 140.45C264.198 140.35 264.198 140.25 264.198 140.15C264.198 138.933 263.973 137.892 263.523 137.025C263.073 136.142 262.44 135.458 261.623 134.975C260.807 134.492 259.857 134.25 258.773 134.25C257.79 134.25 256.898 134.45 256.098 134.85C255.315 135.25 254.673 135.808 254.173 136.525C253.673 137.242 253.34 138.075 253.173 139.025C253.14 139.225 253.115 139.425 253.098 139.625C253.082 139.825 253.073 140.033 253.073 140.25C253.073 141.4 253.307 142.433 253.773 143.35C254.257 144.25 254.907 144.958 255.723 145.475C256.557 145.992 257.49 146.25 258.523 146.25C259.523 146.25 260.357 146.133 261.023 145.9C261.69 145.65 262.257 145.308 262.723 144.875C263.19 144.425 263.615 143.908 263.998 143.325L262.373 142.3C262.123 142.717 261.823 143.083 261.473 143.4C261.123 143.7 260.723 143.942 260.273 144.125C259.84 144.292 259.34 144.375 258.773 144.375C258.023 144.375 257.373 144.217 256.823 143.9C256.273 143.583 255.848 143.117 255.548 142.5C255.248 141.883 255.098 141.133 255.098 140.25L255.148 139.5C255.148 138.783 255.307 138.167 255.623 137.65C255.957 137.117 256.398 136.708 256.948 136.425C257.498 136.142 258.107 136 258.773 136C259.44 136 259.998 136.133 260.448 136.4C260.915 136.65 261.273 137.008 261.523 137.475C261.79 137.925 261.957 138.45 262.023 139.05H254.348V140.75ZM277.864 146H280.114L277.114 133.625L275.989 136.875L277.864 146ZM271.864 144.275L272.614 146.775L277.364 137.625L277.114 133.625L271.864 144.275ZM272.614 146.775L273.364 144.275L268.189 133.625L267.939 137.625L272.614 146.775ZM265.189 146H267.439L269.314 136.875L268.189 133.625L265.189 146ZM283.775 146L288.025 140H285.825L281.575 146H283.775ZM291.075 146V134.5H289.075V146H291.075ZM289.9 139.65H286.325C285.842 139.65 285.433 139.592 285.1 139.475C284.783 139.342 284.542 139.15 284.375 138.9C284.208 138.65 284.125 138.333 284.125 137.95C284.125 137.567 284.208 137.25 284.375 137C284.542 136.75 284.783 136.567 285.1 136.45C285.433 136.317 285.842 136.25 286.325 136.25H289.9V134.5H286.325C285.542 134.5 284.825 134.617 284.175 134.85C283.542 135.083 283.042 135.45 282.675 135.95C282.308 136.45 282.125 137.117 282.125 137.95C282.125 138.767 282.308 139.433 282.675 139.95C283.042 140.45 283.542 140.817 284.175 141.05C284.825 141.283 285.542 141.4 286.325 141.4H289.9V139.65ZM311.08 134.5H301.705V146H303.705V136.375H309.08V146H311.08V134.5ZM324.465 136.5L324.59 133.625L315.09 144L314.965 146.875L324.465 136.5ZM316.965 134.5H314.965V146.875L316.965 144.125V134.5ZM324.59 133.625L322.59 136.375V146H324.59V133.625ZM326.713 134.5V136.375H333.463V134.5H326.713ZM329.088 135V146H331.088V135H329.088ZM335.47 134.5V146H337.47V134.5H335.47ZM336.645 140.6H340.22C340.953 140.6 341.503 140.758 341.87 141.075C342.236 141.392 342.42 141.842 342.42 142.425C342.42 142.808 342.336 143.142 342.17 143.425C342.003 143.692 341.753 143.9 341.42 144.05C341.103 144.183 340.703 144.25 340.22 144.25H336.645V146H340.22C341.02 146 341.736 145.875 342.37 145.625C343.003 145.375 343.503 144.983 343.87 144.45C344.236 143.917 344.42 143.242 344.42 142.425C344.42 141.192 344.011 140.292 343.195 139.725C342.395 139.142 341.403 138.85 340.22 138.85H336.645V140.6ZM354.925 134.5V146H356.925V134.5H354.925ZM361.175 134.5L356.175 139.25L361.675 146H364.175L358.675 139.25L363.675 134.5H361.175ZM364.694 140.25C364.694 141.4 364.953 142.433 365.469 143.35C366.003 144.25 366.719 144.958 367.619 145.475C368.519 145.992 369.528 146.25 370.644 146.25C371.778 146.25 372.786 145.992 373.669 145.475C374.569 144.958 375.278 144.25 375.794 143.35C376.328 142.433 376.594 141.4 376.594 140.25C376.594 139.083 376.328 138.05 375.794 137.15C375.278 136.25 374.569 135.542 373.669 135.025C372.786 134.508 371.778 134.25 370.644 134.25C369.528 134.25 368.519 134.508 367.619 135.025C366.719 135.542 366.003 136.25 365.469 137.15C364.953 138.05 364.694 139.083 364.694 140.25ZM366.719 140.25C366.719 139.45 366.886 138.742 367.219 138.125C367.569 137.492 368.036 137 368.619 136.65C369.219 136.3 369.894 136.125 370.644 136.125C371.394 136.125 372.061 136.3 372.644 136.65C373.244 137 373.711 137.492 374.044 138.125C374.394 138.742 374.569 139.45 374.569 140.25C374.569 141.05 374.394 141.758 374.044 142.375C373.711 142.992 373.244 143.483 372.644 143.85C372.061 144.2 371.394 144.375 370.644 144.375C369.894 144.375 369.219 144.2 368.619 143.85C368.036 143.483 367.569 142.992 367.219 142.375C366.886 141.758 366.719 141.05 366.719 140.25ZM383.792 132V148.5H385.792V132H383.792ZM378.342 140.25C378.342 141.4 378.608 142.433 379.142 143.35C379.675 144.25 380.425 144.958 381.392 145.475C382.375 145.992 383.508 146.25 384.792 146.25C386.092 146.25 387.225 145.992 388.192 145.475C389.158 144.958 389.908 144.25 390.442 143.35C390.975 142.433 391.242 141.4 391.242 140.25C391.242 139.083 390.975 138.05 390.442 137.15C389.908 136.25 389.158 135.542 388.192 135.025C387.225 134.508 386.092 134.25 384.792 134.25C383.508 134.25 382.375 134.508 381.392 135.025C380.425 135.542 379.675 136.25 379.142 137.15C378.608 138.05 378.342 139.083 378.342 140.25ZM380.367 140.25C380.367 139.45 380.542 138.742 380.892 138.125C381.258 137.492 381.767 137 382.417 136.65C383.083 136.3 383.875 136.125 384.792 136.125C385.708 136.125 386.492 136.3 387.142 136.65C387.808 137 388.317 137.492 388.667 138.125C389.033 138.742 389.217 139.45 389.217 140.25C389.217 141.05 389.033 141.758 388.667 142.375C388.317 142.992 387.808 143.483 387.142 143.85C386.492 144.2 385.708 144.375 384.792 144.375C383.875 144.375 383.083 144.2 382.417 143.85C381.767 143.483 381.258 142.992 380.892 142.375C380.542 141.758 380.367 141.05 380.367 140.25ZM394.265 140.75H404.09C404.107 140.65 404.115 140.55 404.115 140.45C404.115 140.35 404.115 140.25 404.115 140.15C404.115 138.933 403.89 137.892 403.44 137.025C402.99 136.142 402.357 135.458 401.54 134.975C400.724 134.492 399.774 134.25 398.69 134.25C397.707 134.25 396.815 134.45 396.015 134.85C395.232 135.25 394.59 135.808 394.09 136.525C393.59 137.242 393.257 138.075 393.09 139.025C393.057 139.225 393.032 139.425 393.015 139.625C392.999 139.825 392.99 140.033 392.99 140.25C392.99 141.4 393.224 142.433 393.69 143.35C394.174 144.25 394.824 144.958 395.64 145.475C396.474 145.992 397.407 146.25 398.44 146.25C399.44 146.25 400.274 146.133 400.94 145.9C401.607 145.65 402.174 145.308 402.64 144.875C403.107 144.425 403.532 143.908 403.915 143.325L402.29 142.3C402.04 142.717 401.74 143.083 401.39 143.4C401.04 143.7 400.64 143.942 400.19 144.125C399.757 144.292 399.257 144.375 398.69 144.375C397.94 144.375 397.29 144.217 396.74 143.9C396.19 143.583 395.765 143.117 395.465 142.5C395.165 141.883 395.015 141.133 395.015 140.25L395.065 139.5C395.065 138.783 395.224 138.167 395.54 137.65C395.874 137.117 396.315 136.708 396.865 136.425C397.415 136.142 398.024 136 398.69 136C399.357 136 399.915 136.133 400.365 136.4C400.832 136.65 401.19 137.008 401.44 137.475C401.707 137.925 401.874 138.45 401.94 139.05H394.265V140.75Z" fill="#E7C5C4"/>
</svg>
