<svg width="25" height="28" viewBox="0 0 33 28" fill="none" xmlns="http://www.w3.org/2000/svg">
<path d="M0.66939 10.3716C1.48138 11.3157 2.77101 11.4083 3.64668 10.5567C11.0819 3.44793 21.8766 3.44793 29.3278 10.5382C30.2194 11.3898 31.5249 11.3157 32.3369 10.3716C33.2763 9.27934 33.2126 7.46512 32.1777 6.48397C23.0866 -2.16132 9.9356 -2.16132 0.828603 6.48397C-0.206283 7.44661 -0.28589 9.26083 0.66939 10.3716ZM13.0243 24.7372L15.3648 27.4585C15.9857 28.1805 16.9887 28.1805 17.6097 27.4585L19.9501 24.7372C20.6984 23.8671 20.5392 22.3676 19.5839 21.7937C17.6415 20.6274 15.317 20.6274 13.3587 21.7937C12.4512 22.3676 12.276 23.8671 13.0243 24.7372ZM7.08568 17.8321C7.86583 18.7392 9.09177 18.8317 9.99929 18.0727C13.8841 14.8701 19.1063 14.8701 22.9911 18.0727C23.8986 18.8132 25.1245 18.7392 25.9047 17.8321L25.9206 17.8136C26.8759 16.7028 26.8122 14.8145 25.7136 13.9074C20.2367 9.29785 12.7696 9.29785 7.27674 13.9074C6.17817 14.8331 6.11448 16.7028 7.08568 17.8321Z" fill="#E7C5C4"/>
</svg>
